<svg width="100" height="100" viewBox="0 0 100 100" xmlns="http://www.w3.org/2000/svg">
  <rect x="4" y="4" width="92" height="92" rx="20" fill="none" stroke="white" stroke-width="8"></rect>
  <path fill="white" d="M50 20C35.1 20 23 32.1 23 47c0 11.9 7.7 22 18.4 25.5 1.3.2 1.8-.6 1.8-1.3 0-.6 0-2.2 0-4.2-7.5 1.6-9-3.6-9-3.6-1.2-3-2.9-3.9-2.9-3.9-2.4-1.7.2-1.7.2-1.7 2.6.2 4 2.8 4 2.8 2.4 4.1 6.3 3 7.9 2.3.2-1.7.7-2.9 1.4-3.6-5.7-.6-11.7-2.8-11.7-12.8 0-2.8 1-5.3 2.7-7.1-.3-.7-1.2-3.4.3-7.1 0 0 2.3-.7 7.4 2.7 2.2-.6 4.6-.9 6.9-.9s4.7.3 6.9.1c5.1-3.4 7.4-2.7 7.4-2.7 1.5 3.7.5 6.4.2 7.1 1.7 1.9 2.7 4.4 2.7 7.1 0 10-6 12.2-11.7 12.8.9.7 1.6 2.1 1.6 4.4 0 3.1 0 5.5 0 6.3 0 .7.5 1.5 1.8 1.3C69.3 69 77 58.9 77 47c0-14.9-12.1-27-27-27z"></path>
</svg>
