<svg xmlns="http://www.w3.org/2000/svg" width="64" height="64" viewBox="0 0 24 24" fill="none">
  <path d="M16.98 2H7.02C4.25 2 2 4.25 2 7.02V16.98C2 19.75 4.25 22 7.02 22H16.98C19.75 22 22 19.75 22 16.98V7.02C22 4.25 19.75 2 16.98 2ZM20 16.98C20 18.65 18.65 20 16.98 20H7.02C5.35 20 4 18.65 4 16.98V7.02C4 5.35 5.35 4 7.02 4H16.98C18.65 4 20 5.35 20 7.02V16.98Z" fill="white"></path>
  <path d="M12 7C9.24 7 7 9.24 7 12C7 14.76 9.24 17 12 17C14.76 17 17 14.76 17 12C17 9.24 14.76 7 12 7ZM12 15C10.34 15 9 13.66 9 12C9 10.34 10.34 9 12 9C13.66 9 15 10.34 15 12C15 13.66 13.66 15 12 15Z" fill="white"></path>
  <circle cx="17.5" cy="6.5" r="1.5" fill="white"></circle>
</svg>
