<svg xmlns="http://www.w3.org/2000/svg" width="64" height="64" viewBox="0 0 24 24" fill="white">
  <path d="M20.52 3.48A11.82 11.82 0 0 0 12.04 0C5.42 0 .04 5.38.04 12c0 2.11.55 4.17 1.6 6L0 24l6.19-1.62A11.94 11.94 0 0 0 12.04 24C18.66 24 24 18.62 24 12c0-3.19-1.24-6.19-3.48-8.52ZM12.04 22.02c-1.78 0-3.53-.48-5.06-1.39l-.36-.21-3.67.96.98-3.58-.23-.37a9.96 9.96 0 0 1-1.54-5.33c0-5.52 4.49-10 10.01-10 2.67 0 5.18 1.04 7.07 2.93a9.93 9.93 0 0 1 2.93 7.07c0 5.52-4.49 10-10.01 10Zm5.48-7.49c-.3-.15-1.77-.87-2.05-.97-.28-.1-.48-.15-.68.15-.2.3-.78.97-.96 1.17-.18.2-.35.23-.65.08-.3-.15-1.27-.47-2.42-1.49-.89-.8-1.49-1.78-1.67-2.08-.18-.3-.02-.46.13-.61.13-.13.3-.35.45-.53.15-.18.2-.3.3-.5.1-.2.05-.38-.02-.53-.08-.15-.68-1.64-.93-2.25-.24-.58-.48-.5-.68-.51h-.58c-.2 0-.53.08-.8.38-.28.3-1.05 1.03-1.05 2.52 0 1.49 1.08 2.93 1.23 3.13.15.2 2.13 3.25 5.16 4.56.72.31 1.28.5 1.72.64.72.23 1.38.2 1.9.12.58-.09 1.77-.72 2.02-1.42.25-.7.25-1.3.18-1.42-.08-.13-.28-.2-.58-.35Z"></path>
</svg>
